<svg width="437" height="80" fill="none" xmlns="http://www.w3.org/2000/svg"><path d="M56.96 55.794c0-9.228-5.212-16.177-12.16-19.108 4.56-3.257 8.469-8.035 8.469-15.2 0-6.297-2.39-11.4-6.298-14.983C42.954 2.703 37.31.857 28.84.857H5.714C2.674.857.286 3.246.286 6.286v67.64c0 2.931 2.388 5.428 5.32 5.428h24.32c17.371 0 27.034-10.314 27.034-23.56zM42.52 21.703c0 6.297-3.149 10.966-12.594 10.966H11.143v-22.04h17.371c9.446 0 14.006 4.234 14.006 11.074zm3.257 34.2c0 8.143-5.754 13.68-15.634 13.68h-19v-27.36h19.434c10.314 0 15.2 5.211 15.2 13.68zM108.516 72.189v2.063a5.097 5.097 0 005.103 5.102 5.097 5.097 0 005.102-5.103V26.154a5.097 5.097 0 00-5.102-5.102 5.097 5.097 0 00-5.103 5.102v1.629c-3.692-4.994-9.337-7.274-14.983-7.274-13.789 0-24.32 11.943-24.32 29.748 0 17.914 10.64 29.64 24.428 29.64 6.298 0 11.618-2.823 14.875-7.708zm-14.549-.977c-8.468 0-14.657-7.818-14.657-20.955 0-13.028 6.189-21.063 14.657-21.063 8.252 0 14.657 8.035 14.657 21.063 0 13.137-6.405 20.955-14.657 20.955zM147.782 26.154a5.097 5.097 0 00-5.103-5.102 5.097 5.097 0 00-5.103 5.102v48.097a5.097 5.097 0 005.103 5.103 5.097 5.097 0 005.103-5.103v-29.64c0-2.714.543-5.862 2.063-8.251 2.605-4.343 7.817-6.623 12.485-6.623 5.212 0 8.686 2.497 9.989 6.189.651 1.846.868 5.103.868 7.708v30.617a5.097 5.097 0 005.103 5.103 5.097 5.097 0 005.103-5.103v-31.16c0-5.102-.434-10.097-2.823-14.114-3.583-6.08-10.205-8.468-16.285-8.468-7.058 0-13.029 2.931-16.503 6.948v-1.303zM243.854 30.28c1.194-1.086 2.062-2.606 2.062-4.234 0-2.823-2.388-4.994-4.994-4.994-1.411 0-2.714.65-3.691 1.628l-25.189 25.189V5.96a5.097 5.097 0 00-5.103-5.103 5.097 5.097 0 00-5.103 5.103v68.291a5.097 5.097 0 005.103 5.103 5.097 5.097 0 005.103-5.103V60.79l7.6-7.275 18.892 24.103c1.194 1.52 2.714 1.954 3.908 1.954 2.714 0 4.994-2.28 4.994-4.994 0-1.411-.651-2.605-1.52-3.691L226.482 47l17.372-16.72zM303.709 48.629c0-18.24-10.097-28.12-22.908-28.12-12.92 0-24.646 10.64-24.646 29.748 0 18.349 10.64 29.64 24.646 29.64 9.337 0 15.634-4.126 19.217-9.554.543-.869 1.194-2.063 1.194-3.366 0-2.606-1.629-4.56-4.234-4.56-1.737 0-3.04.869-4.126 2.389-3.04 4.234-6.623 6.406-12.269 6.406-8.142 0-13.571-7.166-14.331-17.263h32.571c2.715 0 4.886-1.629 4.886-5.32zm-9.988-3.366h-27.252c.76-9.88 6.514-16.069 14.332-16.069 7.708 0 12.594 6.189 12.92 16.069zM339.749 79.897c6.08 0 11.183-2.823 14.983-7.383v1.737a5.097 5.097 0 005.103 5.103 5.097 5.097 0 005.103-5.103V5.96a5.097 5.097 0 00-5.103-5.103 5.097 5.097 0 00-5.103 5.103v21.497c-3.365-3.908-8.251-6.948-15.634-6.948-13.571 0-23.669 12.051-23.669 29.64 0 17.914 10.64 29.748 24.32 29.748zm.435-50.703c8.251 0 14.657 7.817 14.657 20.955 0 13.028-6.406 21.063-14.657 21.063-8.469 0-14.657-8.035-14.657-21.063 0-13.138 6.188-20.955 14.657-20.955zM436.179 30.172c0-5.32-4.343-9.663-9.772-9.663-5.32 0-9.663 4.343-9.663 9.663 0 5.428 4.343 9.77 9.663 9.77a9.731 9.731 0 009.772-9.77zm0 40.062a9.731 9.731 0 00-9.772-9.771c-5.32 0-9.663 4.343-9.663 9.771 0 5.32 4.343 9.663 9.663 9.663 5.429 0 9.772-4.343 9.772-9.663z" fill="#141414"/></svg>